<?xml version="1.0" encoding="UTF-8"?>
<!DOCTYPE svg PUBLIC "-//W3C//DTD SVG 1.1//EN" "http://www.w3.org/Graphics/SVG/1.1/DTD/svg11.dtd">
<!-- Creator: CorelDRAW 2020 (64-Bit) -->
<svg xmlns="http://www.w3.org/2000/svg" xml:space="preserve" width="405mm" height="405mm" version="1.1" style="shape-rendering:geometricPrecision; text-rendering:geometricPrecision; image-rendering:optimizeQuality; fill-rule:evenodd; clip-rule:evenodd"
viewBox="0 0 40500 40500"
 xmlns:xlink="http://www.w3.org/1999/xlink"
 xmlns:xodm="http://www.corel.com/coreldraw/odm/2003">
 <defs>
  <style type="text/css">
   <![CDATA[
    .str0 {stroke:black;stroke-width:105.83;stroke-miterlimit:22.9256}
    .fil1 {fill:none}
    .fil2 {fill:url(#id0)}
    .fil0 {fill:url(#id1)}
    .fil4 {fill:url(#id2)}
    .fil3 {fill:url(#id3)}
   ]]>
  </style>
  <linearGradient id="id0" gradientUnits="userSpaceOnUse" x1="30338.82" y1="19998.77" x2="30517.9" y2="200.39">
   <stop offset="0" style="stop-opacity:1; stop-color:#69085F"/>
   <stop offset="0.282353" style="stop-opacity:1; stop-color:#70257C"/>
   <stop offset="0.458824" style="stop-opacity:1; stop-color:#784399"/>
   <stop offset="1" style="stop-opacity:1; stop-color:#2D66B5"/>
  </linearGradient>
  <linearGradient id="id1" gradientUnits="userSpaceOnUse" x1="-436.95" y1="9348.49" x2="19665.55" y2="9348.49">
   <stop offset="0" style="stop-opacity:1; stop-color:#F6C174"/>
   <stop offset="0.0705882" style="stop-opacity:1; stop-color:#F4AE6B"/>
   <stop offset="0.14902" style="stop-opacity:1; stop-color:#F39769"/>
   <stop offset="0.25098" style="stop-opacity:1; stop-color:#EF8073"/>
   <stop offset="0.329412" style="stop-opacity:1; stop-color:#DA7184"/>
   <stop offset="0.411765" style="stop-opacity:1; stop-color:#C46A93"/>
   <stop offset="0.521569" style="stop-opacity:1; stop-color:#A86AA4"/>
   <stop offset="0.670588" style="stop-opacity:1; stop-color:#8D69AE"/>
   <stop offset="0.788235" style="stop-opacity:1; stop-color:#7B5FAC"/>
   <stop offset="0.878431" style="stop-opacity:1; stop-color:#6558AD"/>
   <stop offset="1" style="stop-opacity:1; stop-color:#4B52B0"/>
  </linearGradient>
  <radialGradient id="id2" gradientUnits="userSpaceOnUse" gradientTransform="matrix(0.999999 -0 -0 -0.980862 0 59567)" cx="30489.76" cy="30071.09" r="11059.59" fx="30489.76" fy="30071.09">
   <stop offset="0" style="stop-opacity:1; stop-color:#FF0037"/>
   <stop offset="0.568627" style="stop-opacity:1; stop-color:#FC492D"/>
   <stop offset="1" style="stop-opacity:1; stop-color:#F5E617"/>
  </radialGradient>
  <radialGradient id="id3" gradientUnits="userSpaceOnUse" gradientTransform="matrix(1 -0 -0 -1 0 60089)" cx="10057.01" cy="30044.58" r="13493.75" fx="10057.01" fy="30044.58">
   <stop offset="0" style="stop-opacity:1; stop-color:#EB0CA4"/>
   <stop offset="0.470588" style="stop-opacity:1; stop-color:#B13278"/>
   <stop offset="1" style="stop-opacity:1; stop-color:#80CACD"/>
  </radialGradient>
 </defs>
 <g id="Слой_x0020_1">
  <metadata id="CorelCorpID_0Corel-Layer"/>
  <g id="_2675433252496">
   <polygon class="fil0 str0" points="20118.72,91.25 20118.72,19891.25 16.21,19891.25 16.21,91.25 "/>
   <path class="fil1 str0" d="M-32.52 1647.75c1303.22,-35.66 2606.45,-71.31 3728.67,-231.76 1122.22,-160.45 2063.44,-445.71 3113.27,-374.39 1049.81,71.31 2208.23,499.18 3457.17,481.36 1248.92,-17.83 2588.33,-481.36 3746.76,-517.02 1158.42,-35.66 2135.85,356.56 3131.37,534.84 995.52,178.28 2009.13,142.63 3022.75,106.97"/>
   <path class="fil1 str0" d="M-32.52 3669.19c1303.22,-35.66 2606.45,-71.31 3728.67,-231.76 1122.22,-160.45 2063.44,-445.71 3113.27,-374.39 1049.81,71.31 2208.23,499.18 3457.17,481.36 1248.92,-17.83 2588.33,-481.36 3746.76,-517.02 1158.42,-35.66 2135.85,356.56 3131.37,534.84 995.52,178.28 2009.13,142.63 3022.75,106.97"/>
   <path class="fil1 str0" d="M-32.52 5690.63c1303.22,-35.66 2606.45,-71.31 3728.67,-231.76 1122.22,-160.45 2063.44,-445.71 3113.27,-374.39 1049.81,71.31 2208.23,499.19 3457.17,481.36 1248.92,-17.83 2588.33,-481.36 3746.76,-517.02 1158.42,-35.66 2135.85,356.56 3131.37,534.85 995.52,178.27 2009.13,142.62 3022.75,106.96"/>
   <path class="fil1 str0" d="M-32.52 7712.07c1303.22,-35.66 2606.45,-71.31 3728.67,-231.76 1122.22,-160.45 2063.44,-445.7 3113.27,-374.39 1049.81,71.31 2208.23,499.19 3457.17,481.36 1248.92,-17.83 2588.33,-481.36 3746.76,-517.02 1158.42,-35.65 2135.85,356.57 3131.37,534.85 995.52,178.27 2009.13,142.62 3022.75,106.96"/>
   <path class="fil1 str0" d="M-32.52 9733.51c1303.22,-35.66 2606.45,-71.31 3728.67,-231.76 1122.22,-160.45 2063.44,-445.7 3113.27,-374.39 1049.81,71.31 2208.23,499.19 3457.17,481.36 1248.92,-17.83 2588.33,-481.36 3746.76,-517.02 1158.42,-35.65 2135.85,356.57 3131.37,534.85 995.52,178.27 2009.13,142.62 3022.75,106.96"/>
   <path class="fil1 str0" d="M-32.52 11754.95c1303.22,-35.66 2606.45,-71.3 3728.67,-231.76 1122.22,-160.45 2063.44,-445.7 3113.27,-374.39 1049.81,71.31 2208.23,499.19 3457.17,481.36 1248.92,-17.83 2588.33,-481.36 3746.76,-517.02 1158.42,-35.65 2135.85,356.57 3131.37,534.85 995.52,178.27 2009.13,142.62 3022.75,106.96"/>
   <path class="fil1 str0" d="M-32.52 13776.39c1303.22,-35.66 2606.45,-71.3 3728.67,-231.76 1122.22,-160.45 2063.44,-445.7 3113.27,-374.39 1049.81,71.31 2208.23,499.19 3457.17,481.36 1248.92,-17.83 2588.33,-481.36 3746.76,-517.02 1158.42,-35.65 2135.85,356.57 3131.37,534.85 995.52,178.27 2009.13,142.62 3022.75,106.96"/>
   <path class="fil1 str0" d="M-32.52 15797.83c1303.22,-35.66 2606.45,-71.3 3728.67,-231.76 1122.22,-160.45 2063.44,-445.7 3113.27,-374.39 1049.81,71.31 2208.23,499.19 3457.17,481.36 1248.92,-17.83 2588.33,-481.36 3746.76,-517.01 1158.42,-35.66 2135.85,356.56 3131.37,534.84 995.52,178.27 2009.13,142.62 3022.75,106.96"/>
   <path class="fil1 str0" d="M-32.52 17819.27c1303.22,-35.65 2606.45,-71.3 3728.67,-231.75 1122.22,-160.46 2063.44,-445.71 3113.27,-374.4 1049.81,71.31 2208.23,499.19 3457.17,481.36 1248.92,-17.83 2588.33,-481.36 3746.76,-517.01 1158.42,-35.66 2135.85,356.56 3131.37,534.84 995.52,178.27 2009.13,142.62 3022.75,106.96"/>
   <path class="fil1 str0" d="M-32.52 19840.71c1303.22,-35.65 2606.45,-71.3 3728.67,-231.75 1122.22,-160.46 2063.44,-445.71 3113.27,-374.4 1049.81,71.31 2208.23,499.19 3457.17,481.36 1248.92,-17.83 2588.33,-481.36 3746.76,-517.01 1158.42,-35.66 2135.85,356.56 3131.37,534.84 995.52,178.27 2009.13,142.62 3022.75,106.96"/>
  </g>
  <g id="_2675433252544">
   <polygon class="fil2 str0" points="20328.37,19843.97 20328.37,43.98 40528.37,43.98 40528.37,19843.97 "/>
   <path class="fil1 str0" d="M37627.41 43.98c930.38,639.89 1896.77,1259.51 2895.97,1860.63m-5596.46 -1860.63c375.4,299.83 757.53,595.88 1147.49,887.52 1392.95,1041.76 2881.09,2029.9 4448.97,2973.11m-7936.31 -3860.63c1094.97,1000.52 2253.86,1965.03 3487.34,2887.52 1392.95,1041.76 2881.09,2029.9 4448.97,2973.11m-9997.49 -5860.63c1677.79,1725.91 3511.42,3364.02 5548.52,4887.52 1392.95,1041.76 2881.09,2029.9 4448.97,2973.11m-11841.3 -7860.63c2159.94,2467.19 4582.75,4786.3 7392.33,6887.52 1392.95,1041.76 2881.09,2029.9 4448.97,2973.11m-13512.4 -9860.63c2568.36,3217.57 5506.09,6227.07 9063.43,8887.52 1392.95,1041.76 2881.09,2029.9 4448.97,2973.11m-15044.88 -11860.63c2924.27,3971.51 6310.67,7682.69 10595.91,10887.52 1392.95,1041.76 2881.09,2029.9 4448.97,2973.11m-16466.02 -13860.63c3245.05,4724.34 7019.85,9150.24 12017.05,12887.52 1392.95,1041.76 2881.09,2029.9 4448.97,2973.11m-17799.24 -15860.63c3545.56,5472.06 7653.71,10627.2 13350.27,14887.52 1392.95,1041.76 2881.09,2029.9 4448.97,2973.11m-19063.89 -17860.63c3838.83,6210.99 8228.81,12111.5 14614.92,16887.52 1363.14,1019.46 2817.46,1987.56 4348.44,2912.48m-20089.48 -19654.09c4114.64,6885.1 8722.31,13492.47 15741.04,18741.61 412.88,308.79 834.12,612.88 1263.31,912.48m-17004.35 -17654.09c3835.57,6417.74 8099.81,12593.99 14345.4,17654.09m-14345.4 -15654.09c3343.68,5594.69 7013.18,11005.85 12036.94,15654.09m-12036.94 -13654.09c2874.53,4809.7 5989.83,9483.76 9999.33,13654.09m-9999.33 -11654.09c2423.12,4054.57 5017.24,8012.81 8174,11654.09m-8174 -9654.09c1986.16,3323.24 4087.3,6581.72 6518.79,9654.09m-6518.79 -7654.09c1560.46,2610.95 3191.95,5181.9 4998.74,7654.09m-4998.74 -5654.09c1143.85,1913.9 2325.86,3806.3 3587.05,5654.09m-3587.05 -3654.09c734.46,1228.93 1484.67,2448.99 2261.44,3654.09"/>
  </g>
  <g id="_2675434928768">
   <rect class="fil3 str0" x="-26.79" y="20144.58" width="20167.6" height="19800"/>
   <g>
    <path class="fil1 str0" d="M18642.05 20144.58c-327.22,1924.33 -689.67,3996.67 -678.79,5511.91 14.9,2072.27 728.26,3102.24 2209.53,3144.36"/>
    <path class="fil1 str0" d="M18964.4 20144.58c-337.86,2349.27 -1015.96,5447.62 -1001.14,7511.91 14.9,2072.27 728.26,3102.24 2209.53,3144.36"/>
    <path class="fil1 str0" d="M1023.51 20144.58c103.6,293.42 253.63,551.32 463.67,761.38 1631.9,1631.91 6849.83,404.49 10742.56,-761.38m6920.81 0c-7.12,2215 -1206.96,6773.4 -1187.29,9511.91 14.9,2072.27 728.26,3102.24 2209.53,3144.36"/>
    <path class="fil1 str0" d="M858.46 20144.58c-90.57,1134.95 16.71,2149.34 628.72,2761.38 1820.42,1820.43 8103.6,82.72 12031.29,-1158.47 3927.67,-1241.22 5499.83,-1985.93 5623.94,82.74 124.13,2068.69 -1199.8,6950.77 -1179.15,9826.26 14.9,2072.27 728.26,3102.24 2209.53,3144.36"/>
    <path class="fil1 str0" d="M1148.35 20144.58c-340.14,1852.61 -620.98,3801.54 338.83,4761.38 1820.42,1820.43 8103.6,82.72 12031.29,-1158.47 3927.67,-1241.22 5499.83,-1985.93 5623.94,82.74 124.13,2068.69 -1199.8,6950.77 -1179.15,9826.26 14.9,2072.27 728.26,3102.24 2209.53,3144.36"/>
    <path class="fil1 str0" d="M1495.33 20144.58c-298.04,2238.75 -1330.64,5438.84 -8.15,6761.38 1820.42,1820.43 8103.6,82.72 12031.29,-1158.47 3927.67,-1241.22 5499.83,-1985.93 5623.94,82.74 124.13,2068.69 -1199.8,6950.77 -1179.15,9826.26 14.9,2072.27 728.26,3102.24 2209.53,3144.36"/>
    <path class="fil1 str0" d="M1333.19 20144.58c7.18,10.54 14.83,20.57 21.64,31.5 954.31,1530.84 -1688.06,6909.41 132.35,8729.88 1820.42,1820.43 8103.6,82.72 12031.29,-1158.47 3927.67,-1241.22 5499.83,-1985.93 5623.94,82.74 124.13,2068.69 -1199.8,6950.77 -1179.15,9826.26 7.24,1006.68 179.53,1767.08 524.35,2288.09"/>
    <path class="fil1 str0" d="M-26.77 21692.95c656.11,-48.19 1137.11,90.95 1381.6,483.13 954.31,1530.84 -1688.06,6909.41 132.35,8729.88 1820.42,1820.43 8103.6,82.72 12031.29,-1158.47 3927.67,-1241.22 5499.83,-1985.93 5623.94,82.74 124.13,2068.69 -1199.8,6950.77 -1179.15,9826.26 0.71,98.46 3.14,194.33 7.01,288.09"/>
    <path class="fil1 str0" d="M-26.77 23692.95c656.11,-48.19 1137.11,90.95 1381.6,483.13 954.31,1530.84 -1688.06,6909.41 132.35,8729.88 1820.42,1820.43 8103.6,82.72 12031.29,-1158.47 3927.67,-1241.22 5499.83,-1985.93 5623.94,82.74 101.88,1697.93 -771.59,5290.94 -1076.6,8114.35"/>
    <path class="fil1 str0" d="M-26.77 25692.95c656.11,-48.19 1137.11,90.95 1381.6,483.13 954.31,1530.84 -1688.06,6909.41 132.35,8729.88 1820.42,1820.43 8103.6,82.72 12031.29,-1158.47 3927.67,-1241.22 5499.83,-1985.93 5623.94,82.74 78.87,1314.44 -426.81,3764.68 -800.81,6114.35"/>
    <path class="fil1 str0" d="M-26.77 27692.95c656.11,-48.19 1137.11,90.95 1381.6,483.13 954.31,1530.84 -1688.06,6909.41 132.35,8729.88 1820.42,1820.43 8103.6,82.72 12031.29,-1158.47 3927.67,-1241.22 5499.83,-1985.93 5623.94,82.74 56.45,940.73 -186.55,2463.29 -466.39,4114.35"/>
    <path class="fil1 str0" d="M-26.77 29692.95c656.11,-48.19 1137.11,90.95 1381.6,483.13 954.31,1530.84 -1688.06,6909.41 132.35,8729.88 1820.42,1820.43 8103.6,82.72 12031.29,-1158.47 3927.67,-1241.22 5499.83,-1985.93 5623.94,82.74 32.47,541.02 -34.22,1274.69 -149.89,2114.35"/>
    <path class="fil1 str0" d="M-26.77 31692.95c656.11,-48.19 1137.11,90.95 1381.6,483.13 819.77,1315.02 -1014.45,5469.32 -393.99,7768.5m11926.56 0c215.97,-66.64 426.87,-132.56 631.07,-197.09 3927.67,-1241.22 5499.83,-1985.93 5623.94,82.74 2.23,37.14 3.86,75.43 5.17,114.35"/>
    <path class="fil1 str0" d="M-26.77 33692.95c656.11,-48.19 1137.11,90.95 1381.6,483.13 614.73,986.11 -262.76,3568.71 -478.64,5768.5"/>
    <path class="fil1 str0" d="M-26.77 35692.95c656.11,-48.19 1137.11,90.95 1381.6,483.13 433.01,694.6 125.53,2181.39 -169.54,3768.5"/>
    <path class="fil1 str0" d="M-26.77 37692.95c656.11,-48.19 1137.11,90.95 1381.6,483.13 240.11,385.18 252.43,1014.09 165.52,1768.5"/>
   </g>
  </g>
  <g id="_2675434928192">
   <g>
    <rect class="fil4 str0" x="20389.76" y="20171.09" width="20200" height="19800"/>
   </g>
   <path class="fil1 str0" d="M20389.77 21154.62c5855.99,2028.47 11711.99,4056.95 12858.46,4118.69 1146.46,61.73 -2416.59,-1843.27 -4074.65,-2478.27 -1658.06,-635 -1411.11,0 809.09,1128.89 2220.19,1128.89 6413.65,2751.66 10607.1,4374.44m-20200 -5643.75c5855.99,2028.47 11711.99,4056.95 12858.46,4118.69 1146.46,61.73 -2416.59,-1843.27 -4074.65,-2478.27 -1658.06,-635 -1411.11,0 809.09,1128.89 2220.19,1128.89 6413.65,2751.66 10607.1,4374.44m-20200 -5643.75c5855.99,2028.47 11711.99,4056.95 12858.46,4118.69 1146.46,61.73 -2416.59,-1843.27 -4074.65,-2478.27 -1658.06,-635 -1411.11,0 809.09,1128.89 2220.19,1128.89 6413.65,2751.66 10607.1,4374.44m-20200 -5643.75c5855.99,2028.47 11711.99,4056.95 12858.46,4118.69 1146.46,61.73 -2416.59,-1843.27 -4074.65,-2478.27 -1658.06,-635 -1411.11,0 809.09,1128.89 2220.19,1128.89 6413.65,2751.66 10607.1,4374.44m-20200 -5643.75c5855.99,2028.47 11711.99,4056.95 12858.46,4118.69 1146.46,61.73 -2416.59,-1843.27 -4074.65,-2478.27 -1658.06,-635 -1411.11,0 809.09,1128.89 2220.19,1128.89 6413.65,2751.66 10607.1,4374.44m-20200 -5643.75c5855.99,2028.47 11711.99,4056.95 12858.46,4118.69 1146.46,61.73 -2416.59,-1843.27 -4074.65,-2478.27 -1658.06,-635 -1411.11,0 809.09,1128.89 2220.19,1128.89 6413.65,2751.66 10607.1,4374.44m-20200 -5643.75c5855.99,2028.47 11711.99,4056.95 12858.46,4118.69 1146.46,61.73 -2416.59,-1843.27 -4074.65,-2478.27 -1658.06,-635 -1411.11,0 809.09,1128.89 2220.19,1128.89 6413.65,2751.66 10607.1,4374.44m-20200 -5643.75c5855.99,2028.47 11711.99,4056.95 12858.46,4118.69 1146.46,61.73 -2416.59,-1843.27 -4074.65,-2478.27 -1658.06,-635 -1411.11,0 809.09,1128.89 2220.19,1128.89 6413.65,2751.66 10607.1,4374.44m-20200 -5643.75c5855.99,2028.47 11711.99,4056.95 12858.46,4118.69 1146.46,61.73 -2416.59,-1843.27 -4074.65,-2478.27 -1658.06,-635 -1411.11,0 809.09,1128.89 2070.87,1052.96 5858.52,2535.62 9761.61,4047.17m-19354.51 -5316.48c5855.99,2028.47 11711.99,4056.95 12858.46,4118.69 1146.46,61.73 -2416.59,-1843.27 -4074.65,-2478.27 -1658.06,-635 -1411.11,0 809.09,1128.89 1374.4,698.84 3505.12,1586.96 5923.79,2547.17"/>
  </g>
 </g>
</svg>
